<?xml version="1.0" encoding="UTF-8" standalone="no"?>
<!-- Generator: Adobe Illustrator 23.0.1, SVG Export Plug-In . SVG Version: 6.00 Build 0)  -->

<svg
   xmlns:dc="http://purl.org/dc/elements/1.1/"
   xmlns:cc="http://creativecommons.org/ns#"
   xmlns:rdf="http://www.w3.org/1999/02/22-rdf-syntax-ns#"
   xmlns:svg="http://www.w3.org/2000/svg"
   xmlns="http://www.w3.org/2000/svg"
   xmlns:sodipodi="http://sodipodi.sourceforge.net/DTD/sodipodi-0.dtd"
   xmlns:inkscape="http://www.inkscape.org/namespaces/inkscape"
   version="1.1"
   id="Capa_1"
   x="0px"
   y="0px"
   viewBox="0 0 3207.2898 530.51609"
   xml:space="preserve"
   sodipodi:docname="logo-wallbooks.svg"
   inkscape:version="0.92.3 (2405546, 2018-03-11)"
   width="3207.2898"
   height="530.51611"><metadata
   id="metadata25"><rdf:RDF><cc:Work
       rdf:about=""><dc:format>image/svg+xml</dc:format><dc:type
         rdf:resource="http://purl.org/dc/dcmitype/StillImage" /></cc:Work></rdf:RDF></metadata><defs
   id="defs23">
		
		
		
		
		
		
		
	
	
<clipPath
   clipPathUnits="userSpaceOnUse"
   id="clipPath918"><g
     inkscape:label="Clip"
     id="use920"><flowRoot
       transform="translate(221.11287,-106.46019)"
       style="font-style:normal;font-weight:normal;font-size:40px;line-height:1.25;font-family:sans-serif;letter-spacing:0px;word-spacing:0px;fill:#52b89e;fill-opacity:1;stroke:none"
       id="flowRoot933"
       xml:space="preserve"
       clip-path="none"><flowRegion
         style="fill:#52b89e;fill-opacity:1"
         id="flowRegion929"><rect
           style="fill:#52b89e;fill-opacity:1"
           y="-12.104543"
           x="2244.2388"
           height="876.83209"
           width="1091.106"
           id="rect927" /></flowRegion><flowPara
         style="font-style:normal;font-variant:normal;font-weight:800;font-stretch:normal;font-size:733.33337402px;font-family:'Nunito Sans';-inkscape-font-specification:'Nunito Sans Ultra-Bold';fill:#52b89e;fill-opacity:1"
         id="flowPara931">ks</flowPara></flowRoot></g></clipPath></defs><sodipodi:namedview
   pagecolor="#ffffff"
   bordercolor="#666666"
   borderopacity="1"
   objecttolerance="10"
   gridtolerance="10"
   guidetolerance="10"
   inkscape:pageopacity="0"
   inkscape:pageshadow="2"
   inkscape:window-width="1600"
   inkscape:window-height="832"
   id="namedview21"
   showgrid="false"
   inkscape:zoom="0.35468594"
   inkscape:cx="1956.7329"
   inkscape:cy="200.92921"
   inkscape:window-x="0"
   inkscape:window-y="0"
   inkscape:window-maximized="1"
   inkscape:current-layer="layer1" />
<g
   inkscape:groupmode="layer"
   id="layer1"
   inkscape:label="Layer 1"
   style="display:inline"><path
     style="display:inline;fill:#52b89e"
     d="m 1408.6,478.01866 c 0,8.7 0,17.3 0,25.9 0,7.3 -0.1,7.4 -7.1,7.4 -32.6,0 -65.2,0 -97.8,0 -6.7,0 -6.8,-0.2 -6.9,-6.9 0,-1.2 0,-2.4 0,-3.6 0,-163.7 0,-327.4 0,-490.9999976 0,-10.7 -0.9,-9.8 9.7,-9.8 30.9,0 61.8,0 92.7,0 1.7,0 3.4,0.1 5.1,0 3,-0.1 4.6,1 4.4,4.2 -0.1,1.9 0,3.9 0,5.7999996 0,67.8 0,135.699998 0,203.499998 0,3.1 0,6.3 0,9.6 2.9,-0.3 4.7,-2.2 6.5,-3.8 8.4,-8 17.8,-14.5 28,-19.9 4.9,-2.6 10.1,-4.3 15.3,-6.3 7.5,-2.9 15.5,-5.4 23.3,-6.7 13,-2.1 26.3,-2.9 39.6,-1.5 12.8,1.3 25,4.6 37,8.5 10.1,3.3 19.8,7.9 29.1,13.7 13.8,8.7 25.8,19.1 36.6,31.1 8.7,9.7 15.3,20.8 21.5,32.2 6.5,11.9 10.1,24.7 14,37.6 6.7,22.4 6.6,45.1 4.8,67.9 -0.6,7.6 -3,15.4 -4.9,23 -2.5,9.8 -5.2,19.5 -9.7,28.5 -7,14.1 -14.6,27.9 -25.2,40 -9.1,10.4 -19.4,19.3 -30.2,27.6 -4.9,3.8 -10.4,6.9 -16.1,9.5 -14.1,6.5 -28.3,12.5 -44,14.9 -11.8,1.8 -23.5,2.4 -35.3,2.2 -24.2,-0.4 -46.1,-8 -66.2,-21.5 -6.7,-4.5 -11.6,-10.7 -17.1,-16.4 -2,-2.2 -3.3,-5 -7.1,-5.7 z m -3,-124.8 c 0,3.1 -0.2,5.8 0,8.4 2,20.9 10.8,38.2 28.5,50 12.4,8.3 26.5,11.6 41.3,12.8 8.2,0.7 15.7,-1.7 23.3,-3.4 10.1,-2.3 19.9,-6.5 27.4,-13.8 10.4,-10.1 18.3,-21.7 21,-36.7 4.1,-22.2 1.5,-42.5 -12,-61 -9.1,-12.5 -21.1,-20.9 -36.1,-24.5 -17.5,-4.2 -34.6,-3.9 -51.8,2.6 -12.2,4.6 -21.9,12.1 -29,22.5 -8.7,13.1 -14.1,27.4 -12.6,43.1 z"
     id="path2"
     inkscape:connector-curvature="0" /><path
     style="display:inline;fill:#52b89e"
     d="m 452.6,303.41866 c 0,31.4 -0.3,62.8 0.1,94.2 0.2,14.7 -2,28.9 -7,42.5 -3.7,10.1 -9.3,19.4 -16.1,28 -12.1,15.3 -26.9,27.2 -44.5,35.8 -25,12.3 -51.4,16.9 -79,14.5 -15.4,-1.3 -29.1,-7.7 -42.6,-14.6 -12.3,-6.3 -22.5,-15.5 -32.7,-24.6 -4,-3.6 -4,-3.8 -8.1,-0.2 -6.2,5.3 -11.9,11.2 -18.5,16 -5.7,4.2 -12.2,7.7 -18.5,10.9 -8.1,4.1 -16.2,8.1 -25.1,10.2 -4.2,1 -8.5,1.9 -12.8,2.3 -14.2,1.3 -28.6,0.9 -42.5,-1.8 -18.2,-3.5 -35.4,-10.6 -51,-20.5 -14.3,-9 -26.3,-21 -35.7,-35 -6.4,-9.5 -10.2,-20.5 -14,-31.4 -4.4,-12.6 -4.6,-25.4 -4.6,-38.4 0,-64 0,-128 0,-192 0,-1.7 0,-3.4 0,-5.1 0.2,-5.5 0.2,-5.6 5.8,-5.6 31.4,0 62.8,0 94.2,0 6,0 6,0.1 6,7.6 0,54.6 0,109.1 0,163.7 0,8 -0.4,16 0.2,23.9 0.7,10.9 4.4,20.5 13.7,27.3 5.3,3.9 11.8,5 17.7,5.3 8.8,0.4 17.8,-1.2 25,-7.5 6.2,-5.5 9.2,-12.6 10.3,-20.8 1,-7.7 1,-15.4 1,-23.1 0,-55.8 0,-111.5 0,-167.3 0,-10.3 0,-9.1 9,-9.1 29.5,0 58.9,0 88.4,0 1.7,0 3.4,0 5.1,0 2.7,0 4,1.6 4.2,4 0.2,2.2 0.2,4.3 0.2,6.5 0,58.7 0,117.3 0,176 0,4.6 -0.2,9.2 0.3,13.7 1.5,12.7 8.3,23.2 22.6,26.2 9,1.9 17.1,0.8 25.4,-1.8 4.6,-1.4 8,-4.2 10.5,-8.2 5,-7.7 7,-16.1 7,-25.3 -0.1,-39.6 -0.1,-79.2 -0.1,-118.8 0,-21.7 0,-43.5 0,-65.2 0,-7.2 0.1,-7.3 7.2,-7.3 30.7,0 61.3,0 92,0 6.7,0 6.8,0.1 6.8,6.8 0.1,36.3 0.1,72.3 0.1,108.2 z"
     id="path4"
     inkscape:connector-curvature="0" /><path
     style="display:inline;fill:#52b89e"
     d="m 754,223.91866 c 0,-7.7 0,-14.5 0,-21.2 0,-7.3 0,-7.3 7.7,-7.3 13.3,0 26.5,0 39.8,0 19.1,0 38.1,0 57.2,0 8.6,0 7.9,-0.1 7.9,7.8 0,66.4 0,132.7 0,199.1 0,32.8 0,65.6 0,98.5 0,1.4 0,2.9 0,4.3 -0.2,6.6 -0.6,7.1 -7,7.1 -11.3,0.1 -22.7,0 -34,0 -21,0 -42,0 -63,0 -7.8,0 -8.6,-0.9 -8.6,-8.8 0,-8.1 0,-16.2 0,-24.8 -4.2,1.9 -5.9,5.3 -8.1,7.8 -8.7,9.9 -19.4,17 -31,23 -9.4,4.8 -19.5,7.3 -29.8,9.7 -14.2,3.3 -28.4,3 -42.4,1.9 -16.2,-1.3 -32.2,-4.8 -47,-12.2 -6.6,-3.3 -13.6,-6.2 -19.8,-10.3 -17.6,-11.5 -32.9,-25.3 -45,-42.9 -6.4,-9.4 -12.2,-18.9 -16.6,-29.3 -4.7,-11.2 -9.3,-22.4 -11.7,-34.5 -3,-15 -4.2,-30 -3.9,-45.2 0.3,-17.2 2.9,-34 8.5,-50.3 4.7,-13.6 9.8,-27.2 18,-39 7.5,-10.8 15.2,-21.4 25.1,-30.4 12.3,-11.3 25.6,-20.9 40.7,-28 10.4,-4.9 21.5,-7.8 32.7,-10.7 12,-3.1 24.1,-4.3 36.3,-4 21.6,0.6 42,6.1 61.5,15.6 11.9,5.9 21.6,14.6 32.5,24.1 z m -68.2,200.6 c 10.6,0.5 20.3,-3 30.1,-6.1 14.2,-4.4 24.4,-14.1 32.1,-26.2 5.2,-8.1 7.7,-17.3 9,-27 3.4,-25.5 -2.6,-47.5 -21.6,-65.6 -7,-6.7 -15.2,-11.4 -24.2,-13.8 -18.5,-4.8 -36.9,-4.9 -55.3,2.1 -11.1,4.2 -20.2,11 -26.6,20.1 -11.8,16.8 -18.3,35.6 -14.3,57 1.3,6.9 3.5,13.4 6,19.9 3.7,9.6 9.8,17.6 17.9,23.9 13.8,10.6 30,14.2 46.9,15.7 z"
     id="path6"
     inkscape:connector-curvature="0" /><path
     style="display:inline;fill:#52b89e"
     d="m 1885.8,521.41866 c -16.5,1.4 -32.7,-1.8 -48.8,-4.7 -13.7,-2.5 -26.6,-7.7 -39.5,-12.8 -16,-6.4 -30.3,-15.5 -43.6,-26.1 -8.5,-6.9 -16.3,-14.7 -23.2,-23.5 -6.2,-7.9 -11.5,-16.4 -16.4,-25.2 -5.9,-10.8 -9.6,-22.5 -12.5,-34.4 -3.3,-13.6 -5.9,-27.3 -5.8,-41.3 0.1,-11.7 1.9,-23.3 4.5,-34.8 1.8,-8 3.9,-15.8 6.3,-23.6 2.7,-8.7 6.3,-17 11.4,-24.6 4.4,-6.6 7.8,-13.8 13.3,-19.7 7.5,-8.1 14.9,-16.1 23.6,-23.1 15.1,-12.2 31.8,-21.4 49.7,-28.5 8.7,-3.4 17.7,-5.9 26.8,-8.1 7.2,-1.7 14.8,-1.6 21.6,-4.9 0.6,-0.3 1.4,-0.3 2.1,-0.3 8.7,-0.6 17.3,-1.1 26,-1.7 12.6,-0.8 25.3,-0.2 37.5,2 20.8,3.9 41.9,7.8 61.2,17.4 10.5,5.3 21.1,10.5 30.7,17.3 7.2,5.1 14.3,10.8 20.4,17.1 11.8,12.3 22.1,25.7 29.7,41.3 6.3,12.8 10.2,26.1 13.2,40 4.3,19.6 4.3,39.4 1.8,58.9 -2.7,20.7 -9.2,40.6 -20.2,58.7 -10.8,17.9 -24.5,33.2 -41.2,45.5 -13.7,10.1 -28.5,18.4 -44.6,24.4 -10.3,3.9 -20.7,7.9 -31.4,9.8 -14.2,2.5 -28.4,5.5 -43,4.9 -3.3,-0.1 -6.5,0 -9.6,0 z m -70.3,-164.9 c -0.4,5.1 1,12.4 2.9,19.7 3.6,13.5 11.4,24.5 21.9,32.9 12.2,9.9 27.2,13.7 42.6,15.1 6.8,0.6 13.6,0.1 20.6,-2.1 4.9,-1.5 10.1,-2.9 15.1,-4.4 7,-2.2 13.2,-6.1 18.3,-11.1 10.1,-10.1 17.5,-21.9 20.3,-36.4 3.5,-17.3 2.1,-33.8 -5.6,-49.8 -9.3,-19.1 -24.2,-31.4 -44.9,-36 -11.5,-2.6 -23.3,-2.8 -35.1,-0.8 -10.9,1.9 -20.8,5.7 -29.4,12.5 -18.9,14.7 -26.9,34.5 -26.7,60.4 z"
     id="path8"
     inkscape:connector-curvature="0" /><path
     style="display:inline;fill:#52b89e"
     d="m 1041.8,256.41866 c 0,82.6 0,165.1 0,247.7 0,9.5 0.8,8.6 -8.5,8.6 -32.1,0 -64.2,0 -96.3,0 -1.4,0 -2.9,-0.1 -4.3,0 -2.8,0.1 -4,-1.2 -3.8,-3.9 0.1,-1.7 0,-3.4 0,-5.1 0,-164.9 0,-329.7 0,-494.5999976 0,-10 -0.9,-9 8.9,-9 31.9,0 63.7,0 95.6,0 1.7,0 3.4,0.1 5.1,0 2.4,-0.1 3.5,1.1 3.5,3.5 0,1.9 0,3.9 0,5.8 -0.2,82.3999996 -0.2,164.6999976 -0.2,246.9999976 z"
     id="path12"
     inkscape:connector-curvature="0" /><path
     inkscape:connector-curvature="0"
     style="display:inline;fill:#52b89e"
     d="m 2293.603,523.28504 c -16.5,1.4 -32.7,-1.8 -48.8,-4.7 -13.7,-2.5 -26.6,-7.7 -39.5,-12.8 -16,-6.4 -30.3,-15.5 -43.6,-26.1 -8.5,-6.9 -16.3,-14.7 -23.2,-23.5 -6.2,-7.9 -11.5,-16.4 -16.4,-25.2 -5.9,-10.8 -9.6,-22.5 -12.5,-34.4 -3.3,-13.6 -5.9,-27.3 -5.8,-41.3 0.1,-11.7 1.9,-23.3 4.5,-34.8 1.8,-8 3.9,-15.8 6.3,-23.6 2.7,-8.7 6.3,-17 11.4,-24.6 4.4,-6.6 7.8,-13.8 13.3,-19.7 7.5,-8.1 14.9,-16.1 23.6,-23.1 15.1,-12.2 31.8,-21.4 49.7,-28.5 8.7,-3.4 17.7,-5.9 26.8,-8.1 7.2,-1.7 14.8,-1.6 21.6,-4.9 0.6,-0.3 1.4,-0.3 2.1,-0.3 8.7,-0.6 17.3,-1.1 26,-1.7 12.6,-0.8 25.3,-0.2 37.5,2 20.8,3.9 41.9,7.8 61.2,17.4 10.5,5.3 21.1,10.5 30.7,17.3 7.2,5.1 14.3,10.8 20.4,17.1 11.8,12.3 22.1,25.7 29.7,41.3 6.3,12.8 10.2,26.1 13.2,40 4.3,19.6 4.3,39.4 1.8,58.9 -2.7,20.7 -9.2,40.6 -20.2,58.7 -10.8,17.9 -24.5,33.2 -41.2,45.5 -13.7,10.1 -28.5,18.4 -44.6,24.4 -10.3,3.9 -20.7,7.9 -31.4,9.8 -14.2,2.5 -28.4,5.5 -43,4.9 -3.3,-0.1 -6.5,0 -9.6,0 z m -70.3,-164.9 c -0.4,5.1 1,12.4 2.9,19.7 3.6,13.5 11.4,24.5 21.9,32.9 12.2,9.9 27.2,13.7 42.6,15.1 6.8,0.6 13.6,0.1 20.6,-2.1 4.9,-1.5 10.1,-2.9 15.1,-4.4 7,-2.2 13.2,-6.1 18.3,-11.1 10.1,-10.1 17.5,-21.9 20.3,-36.4 3.5,-17.3 2.1,-33.8 -5.6,-49.8 -9.3,-19.1 -24.2,-31.4 -44.9,-36 -11.5,-2.6 -23.3,-2.8 -35.1,-0.8 -10.9,1.9 -20.8,5.7 -29.4,12.5 -18.9,14.7 -26.9,34.5 -26.7,60.4 z"
     id="path8-3" /><path
     inkscape:connector-curvature="0"
     id="path14"
     d="m 1114.2,255.61866 c 0,-81.3 0,-162.699998 0,-243.999998 0,-1.6999996 0,-3.3999996 0,-5.0999996 0.1,-6.2 0.1,-6.3 6.5,-6.3 32.8,0 65.7,0 98.5,0 8.9,0 8.1,-0.5 8.1,8.3 0,144.0999976 0,288.1999976 0,432.2999976 0,21.7 0,43.4 0,65.2 0,6.6 -0.1,6.7 -6.8,6.7 -33.1,0 -66.1,0 -99.2,0 -1.2,0 -2.4,-0.1 -3.6,0 -2.5,0.1 -3.4,-1.3 -3.4,-3.6 0,-1.9 0,-3.9 0,-5.8 -0.1,-82.6 -0.1,-165.1 -0.1,-247.7 z"
     style="display:inline;fill:#52b89e" /><path
     inkscape:connector-curvature="0"
     id="path951"
     style="display:inline;font-style:normal;font-variant:normal;font-weight:800;font-stretch:normal;font-size:733.33337402px;line-height:1.25;font-family:'Nunito Sans';-inkscape-font-specification:'Nunito Sans Ultra-Bold';letter-spacing:0px;word-spacing:0px;fill:#52b89e;fill-opacity:1;stroke:none"
     d="M 2892.1512,516.64943 H 2756.4845 L 2618.6179,356.04942 V 516.64943 H 2507.8845 V -0.3506 h 110.7334 v 310.93335 l 132.7333,-153.26667 h 132 l -151.0667,171.60001 z" /><path
     inkscape:connector-curvature="0"
     id="path953"
     style="display:inline;font-style:normal;font-variant:normal;font-weight:800;font-stretch:normal;font-size:733.33337402px;line-height:1.25;font-family:'Nunito Sans';-inkscape-font-specification:'Nunito Sans Ultra-Bold';letter-spacing:0px;word-spacing:0px;fill:#52b89e;fill-opacity:1;stroke:none"
     d="m 3051.8231,522.5161 q -49.8667,0 -91.6667,-11 -41.0667,-11.73334 -71.1333,-33.00001 l 29.3333,-76.26667 q 29.3333,19.80001 64.5333,30.80001 35.2001,11 71.1334,11 25.6667,0 39.6,-8.06667 14.6667,-8.8 14.6667,-23.46667 0,-13.2 -10.2667,-20.53333 -9.5333,-7.33334 -36.6667,-13.2 l -58.6666,-13.2 q -52.0667,-11.73334 -77.0001,-35.93334 -24.2,-24.93333 -24.2,-67.46667 0,-33.73334 19.0667,-59.4 19.8,-25.66667 55,-40.33334 35.9334,-14.66667 81.4,-14.66667 38.8667,0 75.5334,11.73334 36.6666,11.73333 66,33 l -29.3334,73.33334 q -57.2,-39.60001 -112.9333,-39.60001 -25.6667,0 -40.3333,8.8 -14.6667,8.80001 -14.6667,24.93334 0,11.73333 8.8,18.33333 8.8,6.6 30.8,12.46667 l 60.8667,13.93334 q 55,12.46666 79.9333,38.13333 25.6667,24.93334 25.6667,68.2 0,52.06667 -41.8,82.13334 -41.0667,29.33334 -113.6667,29.33334 z" /></g>
</svg>